<svg id="Layer_3" enable-background="new 0 0 64 64" height="512" viewBox="0 0 64 64" width="512" xmlns="http://www.w3.org/2000/svg"><path d="m50 28c-3.309 0-6-2.691-6-6v-9c0-4.963-4.037-9-9-9h-3v-2h7c9.374 0 17 7.626 17 17v3c0 3.309-2.691 6-6 6zm-8.365-23.769c2.65 2.011 4.365 5.194 4.365 8.769v9c0 2.206 1.794 4 4 4s4-1.794 4-4v-3c0-7.372-5.346-13.52-12.365-14.769z" fill="#4d5d7a"/><path d="m-2.535 19h36.069v2h-36.069z" fill="#8892a0" transform="matrix(.693 -.721 .721 .693 -9.659 17.304)"/><path d="m47.5 1.965h2v36.069h-2z" fill="#8892a0" transform="matrix(.721 -.693 .693 .721 -.323 39.199)"/><path d="m32 12c-2.757 0-5-2.243-5-5s2.243-5 5-5 5 2.243 5 5-2.243 5-5 5zm0-8c-1.654 0-3 1.346-3 3s1.346 3 3 3 3-1.346 3-3-1.346-3-3-3z" fill="#4d5d7a"/><path d="m2 32h60v30h-60z" fill="#e47c6e"/><path d="m6 36h52v22h-52z" fill="#fff"/><g fill="#e47c6e"><path d="m11 40v14c0 .553.447 1 1 1h8v-2h-7v-5h5v-2h-5v-5h7v-2h-8c-.553 0-1 .447-1 1z"/><path d="m34 41h3v12h-3v2h8v-2h-3v-12h3v-2h-8z"/><path d="m30 42.586-3 3-3-3v-3.586h-2v4c0 .266.105.52.293.707l3.293 3.293-3.293 3.293c-.188.187-.293.441-.293.707v4h2v-3.586l3-3 3 3v3.586h2v-4c0-.266-.105-.52-.293-.707l-3.293-3.293 3.293-3.293c.188-.187.293-.441.293-.707v-4h-2z"/><path d="m52 39h-8v2h3v14h2v-14h3z"/></g></svg>