<svg height="512pt" viewBox="0 0 512 512" width="512pt" xmlns="http://www.w3.org/2000/svg"><path d="m31 332c-16.570312 0-31-13.429688-31-30v-60l31.625-30 29.375 30 30 26.875-30 33.125c0 16.570312-13.429688 30-30 30zm0 0" fill="#ffcebf"/><path d="m241 332c-16.570312 0-30-13.429688-30-30l-30-25 30-35 32.5-30 27.5 30v60c0 16.570312-13.429688 30-30 30zm0 0" fill="#ffa78f"/><path d="m271 197v45h-60v60l-75 30-75-30v-60h-61v-45c0-41.398438 34.601562-76 76-76h120c41.398438 0 75 34.601562 75 76zm0 0" fill="#ff7816"/><path d="m512 407v90c0 8.398438-6.597656 15-15 15h-46l-15-30-15 30h-60l-15-30-15 30h-45c-8.402344 0-15-6.601562-15-15v-90zm0 0" fill="#53433f"/><path d="m512 407v90c0 8.398438-6.597656 15-15 15h-46l-15-30-15 30h-30v-105zm0 0" fill="#3e322e"/><path d="m136 0c-33 0-60 28-60 61s27 60 60 60 60-27 60-60-27-61-60-61zm0 0" fill="#ffcebf"/><path d="m436 317v30c0 8.398438-6.597656 15-15 15s-15-6.601562-15-15v-30c0-8.402344-6.597656-15-15-15s-15 6.597656-15 15v30c0 8.398438-6.597656 15-15 15s-15-6.601562-15-15v-30c0-24.902344 20.097656-45 45-45s45 20.097656 45 45zm0 0" fill="#53433f"/><path d="m331 422h30v90h-30zm0 0" fill="#fdbf00"/><path d="m421 422h30v90h-30zm0 0" fill="#ff9f00"/><path d="m391 302v-30c24.902344 0 45 20.097656 45 45v30c0 8.398438-6.597656 15-15 15s-15-6.601562-15-15v-30c0-8.402344-6.597656-15-15-15zm0 0" fill="#3e322e"/><path d="m512 377v30c0 24.898438-20.097656 45-45 45h-151c-24.902344 0-45-20.101562-45-45v-30c0-24.902344 20.097656-45 45-45h151c24.902344 0 45 20.097656 45 45zm0 0" fill="#68544f"/><path d="m512 377v30c0 24.898438-20.097656 45-45 45h-76v-120h76c24.902344 0 45 20.097656 45 45zm0 0" fill="#53433f"/><path d="m271 197v45h-60v60l-75 30v-211h60c41.398438 0 75 34.601562 75 76zm0 0" fill="#ff4b00"/><path d="m136 121v-121c33 0 60 28 60 61s-27 60-60 60zm0 0" fill="#ffa78f"/><path d="m211 302v150l-26.398438 30-33.601562-30v-75c0-8.402344-6.597656-15-15-15s-15 6.597656-15 15v75l-28.199219 30-31.800781-30v-150zm0 0" fill="#68544f"/><path d="m211 302v150l-26.398438 30-33.601562-30v-75c0-8.402344-6.597656-15-15-15v-60zm0 0" fill="#53433f"/><path d="m61 452c-16.570312 0-30 13.429688-30 30v15c0 8.285156 6.714844 15 15 15h60c8.285156 0 15-6.714844 15-15v-45zm0 0" fill="#53433f"/><path d="m211 452h-60v45c0 8.285156 6.714844 15 15 15h60c8.285156 0 15-6.714844 15-15v-15c0-16.570312-13.429688-30-30-30zm0 0" fill="#3e322e"/></svg>