<svg id="Capa_1" enable-background="new 0 0 493.649 493.649" height="512" viewBox="0 0 493.649 493.649" width="512" xmlns="http://www.w3.org/2000/svg"><path d="m411.062 449h-205.457v-429.664c0-10.679 8.657-19.336 19.336-19.336h186.121c10.679 0 19.336 8.657 19.336 19.336v410.328c0 10.679-8.657 19.336-19.336 19.336z" fill="#f5f5f5"/><path d="m411.062 0h-30c10.679 0 19.336 8.657 19.336 19.336v410.328c0 10.679-8.657 19.336-19.336 19.336h30c10.679 0 19.336-8.657 19.336-19.336v-410.328c0-10.679-8.657-19.336-19.336-19.336z" fill="#f0eef0"/><g fill="#c5d3dd"><path d="m393.398 309.944c-4.143 0-7.5-3.358-7.5-7.5v-264.444c0-4.142 3.357-7.5 7.5-7.5s7.5 3.358 7.5 7.5v264.444c0 4.142-3.358 7.5-7.5 7.5z"/><path d="m330.817 86.06c-4.143 0-7.5-3.358-7.5-7.5v-40.56c0-4.142 3.357-7.5 7.5-7.5s7.5 3.358 7.5 7.5v40.56c0 4.142-3.358 7.5-7.5 7.5z"/><path d="m293.398 86.06c-4.143 0-7.5-3.358-7.5-7.5v-40.56c0-4.142 3.357-7.5 7.5-7.5s7.5 3.358 7.5 7.5v40.56c0 4.142-3.358 7.5-7.5 7.5z"/><path d="m255.979 86.06c-4.143 0-7.5-3.358-7.5-7.5v-40.56c0-4.142 3.357-7.5 7.5-7.5s7.5 3.358 7.5 7.5v40.56c0 4.142-3.358 7.5-7.5 7.5z"/></g><path d="m205.605 392v57h205.457c10.679 0 19.336-8.657 19.336-19.336v-37.664z" fill="#fdb441"/><path d="m400.398 392v37.664c0 10.679-8.657 19.336-19.336 19.336h30c10.679 0 19.336-8.657 19.336-19.336v-37.664z" fill="#fea613"/><path d="m338.734 493.649h-264.13c-6.27 0-11.353-5.083-11.353-11.353v-393.384c0-6.27 5.083-11.353 11.353-11.353h264.13c11.547 0 20.908 9.361 20.908 20.908v374.274c0 11.548-9.361 20.908-20.908 20.908z" fill="#fb2b3a"/><path d="m338.734 77.56h-30c11.547 0 20.908 9.361 20.908 20.908v374.274c0 11.547-9.361 20.908-20.908 20.908h30c11.547 0 20.908-9.361 20.908-20.908v-374.275c0-11.547-9.361-20.907-20.908-20.907z" fill="#e41f2d"/><path d="m98.924 77.56h-24.997c-5.896 0-10.676 4.78-10.676 10.676v394.737c0 5.896 4.78 10.676 10.676 10.676h24.997z" fill="#c41926"/><circle cx="224.142" cy="222.598" fill="#fe99a0" r="84.26"/><path d="m224.142 130.838c-50.597 0-91.76 41.163-91.76 91.76s41.163 91.76 91.76 91.76 91.76-41.163 91.76-91.76-41.163-91.76-91.76-91.76zm65.775 131.283c-.255-.086-.516-.162-.784-.222-7.376-1.646-14.829-2.988-22.326-4.063 1.753-8.754 2.844-18.094 3.217-27.737h30.506c-1.132 11.623-4.866 22.493-10.613 32.022zm-65.775 37.237c-8.551 0-17.666-10.712-23.791-28.585 15.818-1.318 31.764-1.318 47.582 0-6.125 17.874-15.24 28.585-23.791 28.585zm-27.765-43.271c-1.63-7.861-2.728-16.581-3.113-25.989h61.755c-.385 9.408-1.483 18.127-3.113 25.989-18.449-1.706-37.079-1.706-55.529 0zm-38.01 6.034c-5.747-9.528-9.48-20.399-10.613-32.022h30.506c.373 9.643 1.464 18.983 3.217 27.737-7.497 1.075-14.949 2.417-22.326 4.063-.269.06-.53.135-.784.222zm0-79.045c.255.086.515.162.784.222 7.376 1.646 14.829 2.988 22.326 4.063-1.753 8.754-2.843 18.094-3.217 27.738h-30.506c1.132-11.624 4.866-22.495 10.613-32.023zm65.775-37.238c8.551 0 17.666 10.712 23.791 28.585-15.818 1.318-31.763 1.318-47.581 0 6.124-17.873 15.239-28.585 23.79-28.585zm0 44.577c9.271 0 18.54-.453 27.765-1.306 1.63 7.861 2.728 16.581 3.113 25.989h-61.755c.385-9.408 1.483-18.128 3.113-25.989 9.224.853 18.493 1.306 27.764 1.306zm45.882 24.683c-.373-9.643-1.464-18.984-3.217-27.738 7.497-1.075 14.949-2.417 22.326-4.063.268-.06.529-.136.784-.222 5.747 9.529 9.481 20.399 10.613 32.023zm9.857-45.192c-5.561 1.113-11.158 2.073-16.785 2.847-1.429-4.549-3.055-8.858-4.884-12.855-1.31-2.865-2.704-5.531-4.172-7.996 9.832 4.174 18.605 10.354 25.841 18.004zm-85.638-18.004c-1.468 2.465-2.861 5.131-4.172 7.996-1.828 3.998-3.455 8.307-4.883 12.855-5.628-.775-11.224-1.734-16.785-2.847 7.236-7.65 16.009-13.83 25.84-18.004zm-25.84 123.389c5.561-1.113 11.158-2.073 16.785-2.847 1.429 4.549 3.055 8.858 4.884 12.855 1.31 2.865 2.704 5.531 4.172 7.996-9.832-4.174-18.606-10.354-25.841-18.004zm85.638 18.003c1.468-2.465 2.861-5.131 4.172-7.996 1.828-3.998 3.455-8.307 4.884-12.855 5.628.775 11.224 1.734 16.785 2.847-7.236 7.651-16.01 13.831-25.841 18.004z" fill="#fe646f"/><path d="m308.402 388.801h-168.52c-4.143 0-7.5-3.358-7.5-7.5s3.357-7.5 7.5-7.5h168.52c4.143 0 7.5 3.358 7.5 7.5s-3.358 7.5-7.5 7.5z" fill="#c41926"/><path d="m308.402 420.435h-168.52c-4.143 0-7.5-3.358-7.5-7.5s3.357-7.5 7.5-7.5h168.52c4.143 0 7.5 3.358 7.5 7.5s-3.358 7.5-7.5 7.5z" fill="#c41926"/></svg>