<svg height="512pt" viewBox="0 0 512 512.00096" width="512pt" xmlns="http://www.w3.org/2000/svg"><path d="m474.28125 104.109375-93.863281 238.929687c-7.710938 19.5625-26.59375 32.421876-47.617188 32.429688-27.402343.109375-50-21.4375-51.199219-48.8125-.351562-7.195312.84375-14.378906 3.496094-21.078125l93.867188-238.933594c10.34375-26.320312 40.070312-39.269531 66.390625-28.925781 26.320312 10.34375 39.273437 40.066406 28.925781 66.390625zm0 0" fill="#bdc3c7"/><path d="m332.800781 375.46875h-247.46875c-9.414062-.027344-17.035156-7.652344-17.066406-17.066406v-25.601563c0-32.988281 26.746094-59.734375 59.734375-59.734375h93.867188c30.601562.015625 56.246093 23.152344 59.390624 53.589844h.34375c1.199219 27.375 23.796876 48.921875 51.199219 48.8125zm0 0" fill="#95a5a5"/><path d="m349.867188 324.285156c0 9.425782-7.640626 17.066406-17.066407 17.066406s-17.066406-7.640624-17.066406-17.066406c0-9.425781 7.640625-17.066406 17.066406-17.066406s17.066407 7.640625 17.066407 17.066406zm0 0" fill="#7f8c8d"/><path d="m93.867188 418.132812h247.464843c4.714844 0 8.535157 3.820313 8.535157 8.535157v68.265625c0 4.714844-3.820313 8.535156-8.535157 8.535156h-247.464843c-4.710938 0-8.535157-3.820312-8.535157-8.535156v-68.265625c0-4.714844 3.824219-8.535157 8.535157-8.535157zm0 0" fill="#7f8c8d"/><path d="m341.332031 375.46875-17.066406 42.664062h-213.332031l-17.066406-42.664062zm0 0" fill="#35495e"/><path d="m266.683594 36.976562c-10.996094-22.726562-34.074219-37.113281-59.324219-36.976562h-56.320313c-25.246093-.136719-48.324218 14.25-59.324218 36.976562-4.230469 8.628907-6.414063 18.121094-6.382813 27.734376v92.449218c.125 17.296875 7.117188 33.835938 19.441407 45.972656 12.324218 12.136719 28.96875 18.878907 46.265624 18.734376h56.320313c17.128906.066406 33.601563-6.570313 45.902344-18.492188 12.648437-12.042969 19.808593-28.75 19.804687-46.214844v-92.449218c.035156-9.613282-2.148437-19.105469-6.382812-27.734376zm0 0" fill="#7f8c8d"/><path d="m258.730469 42.667969h-159.0625c9.835937-20.875 30.855469-34.179688 53.933593-34.132813h51.199219c23.074219-.046875 44.097657 13.257813 53.929688 34.132813zm0 0" fill="#95a5a5"/><path d="m264.535156 68.269531v68.265625c0-9.425781-7.640625-17.066406-17.066406-17.066406s-17.066406 7.640625-17.066406 17.066406c-.011719 3.0625.816406 6.074219 2.386718 8.703125-.789062-.140625-1.589843-.199219-2.386718-.171875-14.140625 0-25.601563 11.460938-25.601563 25.601563 0 14.136719 11.460938 25.601562 25.601563 25.601562h16.125c-11.113282 10.96875-26.109375 17.105469-41.726563 17.066407h-51.199219c-32.992187 0-59.734374-26.746094-59.734374-59.734376v-85.332031c-.035157-8.863281 1.949218-17.621093 5.800781-25.601562h159.0625c3.851562 7.980469 5.835937 16.738281 5.804687 25.601562zm0 0" fill="#67b9cc"/><path d="m187.734375 128c0 14.140625-11.460937 25.601562-25.601563 25.601562h-42.664062c-11.238281-.011718-21.15625-7.347656-24.453125-18.09375-3.296875-10.742187.800781-22.382812 10.101563-28.691406 9.300781-6.308594 21.625-5.816406 30.394531 1.214844-6.734375-4.550781-9.324219-13.21875-6.191407-20.71875 3.132813-7.496094 11.121094-11.746094 19.089844-10.15625 7.96875 1.59375 13.710938 8.582031 13.722656 16.710938.011719 3.066406-.816406 6.074218-2.386718 8.703124.785156-.140624 1.585937-.199218 2.386718-.167968 14.140626 0 25.601563 11.460937 25.601563 25.597656zm0 0" fill="#ecf0f1"/><path d="m264.535156 136.535156v17.066406c.023438 16.074219-6.472656 31.46875-18.007812 42.667969h-16.125c-14.140625 0-25.601563-11.464843-25.601563-25.601562 0-14.140625 11.460938-25.601563 25.601563-25.601563.796875-.027344 1.597656.03125 2.386718.171875-1.570312-2.628906-2.398437-5.640625-2.386718-8.703125 0-9.425781 7.640625-17.066406 17.066406-17.066406s17.066406 7.640625 17.066406 17.066406zm0 0" fill="#ecf0f1"/><path d="m503.46875 512h-494.933594c-4.714844 0-8.535156-3.820312-8.535156-8.53125 0-4.714844 3.820312-8.535156 8.535156-8.535156h494.933594c4.710938 0 8.53125 3.820312 8.53125 8.535156 0 4.710938-3.820312 8.53125-8.53125 8.53125zm0 0" fill="#35495e"/></svg>