<svg id="Layer_1" enable-background="new 0 0 256 256" height="512" viewBox="0 0 256 256" width="512" xmlns="http://www.w3.org/2000/svg"><path d="m221.804 195.166h-192.589c-10.341 0-18.724-8.383-18.724-18.724 0-10.341 8.383-18.724 18.724-18.724h192.589c10.341 0 18.724 8.383 18.724 18.724 0 10.342-8.383 18.724-18.724 18.724z" fill="#e0ebfc"/><path d="m221.804 242.614h-192.589c-10.341 0-18.724-8.383-18.724-18.724 0-10.341 8.383-18.724 18.724-18.724h192.589c10.341 0 18.724 8.383 18.724 18.724 0 10.341-8.383 18.724-18.724 18.724z" fill="#e0ebfc"/><g fill="#a4c9ff"><path d="m46.675 182.575h-12c-2.209 0-4-1.791-4-4v-4c0-2.209 1.791-4 4-4h12c2.209 0 4 1.791 4 4v4c0 2.209-1.791 4-4 4z"/><path d="m78.675 182.575h-12c-2.209 0-4-1.791-4-4v-4c0-2.209 1.791-4 4-4h12c2.209 0 4 1.791 4 4v4c0 2.209-1.791 4-4 4z"/><path d="m110.675 182.575h-12c-2.209 0-4-1.791-4-4v-4c0-2.209 1.791-4 4-4h12c2.209 0 4 1.791 4 4v4c0 2.209-1.791 4-4 4z"/><path d="m142.675 182.575h-12c-2.209 0-4-1.791-4-4v-4c0-2.209 1.791-4 4-4h12c2.209 0 4 1.791 4 4v4c0 2.209-1.791 4-4 4z"/><path d="m46.675 229.89h-12c-2.209 0-4-1.791-4-4v-4c0-2.209 1.791-4 4-4h12c2.209 0 4 1.791 4 4v4c0 2.21-1.791 4-4 4z"/><path d="m78.675 229.89h-12c-2.209 0-4-1.791-4-4v-4c0-2.209 1.791-4 4-4h12c2.209 0 4 1.791 4 4v4c0 2.21-1.791 4-4 4z"/><path d="m110.675 229.89h-12c-2.209 0-4-1.791-4-4v-4c0-2.209 1.791-4 4-4h12c2.209 0 4 1.791 4 4v4c0 2.21-1.791 4-4 4z"/><path d="m142.675 229.89h-12c-2.209 0-4-1.791-4-4v-4c0-2.209 1.791-4 4-4h12c2.209 0 4 1.791 4 4v4c0 2.21-1.791 4-4 4z"/></g><path d="m221.804 197.167h-192.589c-11.427 0-20.724-9.297-20.724-20.724s9.297-20.724 20.724-20.724h192.589c11.427 0 20.724 9.296 20.724 20.724s-9.298 20.724-20.724 20.724zm-192.589-37.448c-9.222 0-16.724 7.502-16.724 16.724s7.502 16.724 16.724 16.724h192.589c9.222 0 16.724-7.502 16.724-16.724 0-9.221-7.502-16.724-16.724-16.724z" fill="#3762cc"/><path d="m221.804 244.614h-192.589c-11.427 0-20.724-9.296-20.724-20.724s9.297-20.724 20.724-20.724h192.589c11.427 0 20.724 9.297 20.724 20.724s-9.298 20.724-20.724 20.724zm-192.589-37.447c-9.222 0-16.724 7.502-16.724 16.724 0 9.221 7.502 16.724 16.724 16.724h192.589c9.222 0 16.724-7.502 16.724-16.724s-7.502-16.724-16.724-16.724z" fill="#3762cc"/><path d="m194.917 181.555 1.418 25.332c.103 1.846 2.342 2.701 3.65 1.393l1.728-1.728c.836-.836 2.191-.836 3.026 0l22.712 22.712c.836.836 2.191.836 3.026 0l14.405-14.405c.836-.836.836-2.191 0-3.026l-22.712-22.712c-.836-.836-.836-2.191 0-3.026l1.728-1.728c1.308-1.308.453-3.546-1.393-3.65l-25.332-1.418c-1.274-.072-2.327.981-2.256 2.256z" fill="#f9a7a7"/><circle cx="128" cy="78.626" fill="#6bdddd" r="65.24"/><circle cx="128" cy="78.626" fill="#f9cfcf" r="55.611"/><path d="m155.342 40.782 10.502 10.502c2.161 2.161 2.161 5.665 0 7.826l-50.053 50.053-18.329-18.328 50.053-50.053c2.162-2.161 5.666-2.161 7.827 0z" fill="#a4c9ff"/><path d="m115.791 109.163-21.005 4.201c-.938.188-1.712-.586-1.524-1.524l4.201-21.005z" fill="#e0ebfc"/><path d="m94.785 113.364 9.55-1.91-9.164-9.164-1.91 9.55c-.187.938.586 1.712 1.524 1.524z" fill="#4671c6"/><path d="m157.878 67.076 7.807-7.807c2.249-2.249 2.39-5.756.313-7.833l-10.809-10.809c-2.076-2.076-5.583-1.936-7.833.313l-7.807 7.807z" fill="#f9a7a7"/><path d="m128 145.866c-37.076 0-67.24-30.164-67.24-67.24s30.164-67.24 67.24-67.24 67.24 30.164 67.24 67.24-30.164 67.24-67.24 67.24zm0-130.48c-34.871 0-63.24 28.369-63.24 63.24s28.37 63.24 63.24 63.24c34.871 0 63.24-28.37 63.24-63.24s-28.369-63.24-63.24-63.24z" fill="#3762cc"/><path d="m128 136.236c-31.767 0-57.611-25.844-57.611-57.611s25.844-57.61 57.611-57.61 57.611 25.844 57.611 57.61-25.844 57.611-57.611 57.611zm0-111.221c-29.561 0-53.611 24.049-53.611 53.61s24.05 53.611 53.611 53.611c29.562 0 53.611-24.05 53.611-53.611s-24.049-53.61-53.611-53.61z" fill="#3762cc"/><path d="m115.791 111.163c-.512 0-1.024-.195-1.414-.586l-18.329-18.328c-.781-.781-.781-2.047 0-2.828l50.053-50.053c2.938-2.938 7.717-2.938 10.654 0l10.502 10.502c2.938 2.938 2.938 7.717 0 10.654l-50.053 50.053c-.39.391-.902.586-1.413.586zm-15.5-20.328 15.5 15.5 48.639-48.639c.667-.667 1.035-1.555 1.035-2.499s-.368-1.832-1.035-2.499l-10.502-10.502c-1.336-1.335-3.662-1.335-4.998 0z" fill="#3762cc"/><path d="m94.509 115.392c-.869 0-1.704-.336-2.322-.954-.775-.775-1.106-1.893-.887-2.99l4.202-21.005c.145-.724.675-1.309 1.381-1.522.705-.214 1.472-.022 1.994.5l18.328 18.328c.521.521.714 1.288.5 1.994-.213.706-.798 1.237-1.522 1.381l-21.005 4.201c-.223.045-.448.067-.669.067zm4.181-20.5-3.261 16.304 16.304-3.261z" fill="#3762cc"/><circle cx="143.777" cy="90.835" fill="#ffea92" r="20.79"/><path d="m155.477 86.785h-6.75c-.497 0-.9-.403-.9-.9v-6.75c0-.497-.403-.9-.9-.9h-6.3c-.497 0-.9.403-.9.9v6.75c0 .497-.403.9-.9.9h-6.75c-.497 0-.9.403-.9.9v6.3c0 .497.403.9.9.9h6.75c.497 0 .9.403.9.9v6.75c0 .497.403.9.9.9h6.3c.497 0 .9-.403.9-.9v-6.75c0-.497.403-.9.9-.9h6.75c.497 0 .9-.403.9-.9v-6.3c0-.497-.403-.9-.9-.9z" fill="#f9a7a7"/><path d="m143.777 113.625c-12.566 0-22.79-10.224-22.79-22.79s10.224-22.79 22.79-22.79 22.79 10.224 22.79 22.79-10.223 22.79-22.79 22.79zm0-41.58c-10.361 0-18.79 8.429-18.79 18.79s8.429 18.79 18.79 18.79 18.79-8.429 18.79-18.79-8.428-18.79-18.79-18.79z" fill="#3762cc"/><path d="m228.965 231.89c-1.106 0-2.146-.431-2.928-1.213l-22.711-22.711c-.056-.054-.144-.053-.198 0l-1.729 1.728c-1.17 1.17-2.859 1.53-4.403.94-1.546-.59-2.564-1.983-2.657-3.636l-1.419-25.332c-.065-1.175.374-2.326 1.206-3.159.833-.833 1.984-1.268 3.159-1.207l25.332 1.418c1.653.093 3.046 1.111 3.637 2.657.59 1.546.229 3.234-.94 4.404l-1.729 1.729c-.047.046-.047.151 0 .197l22.712 22.712c1.613 1.614 1.613 4.24.001 5.854l-14.406 14.405c-.782.783-1.821 1.214-2.927 1.214zm-25.737-27.963c1.06 0 2.119.403 2.927 1.21l22.712 22.712c.048.047.152.046.196 0l14.406-14.405c.054-.054.054-.144-.001-.199l-22.711-22.711c-.782-.781-1.213-1.821-1.213-2.927 0-1.105.431-2.146 1.213-2.927l1.729-1.729c.03-.03.063-.063.031-.148s-.08-.088-.123-.09l-25.331-1.418c-.026-.004-.064-.002-.107.041-.045.044-.042.089-.041.106l1.419 25.332c.002.042.005.09.09.123.088.033.118-.001.148-.032l1.729-1.729c.805-.805 1.866-1.209 2.927-1.209z" fill="#3762cc"/></svg>